<?xml version="1.0" encoding="utf-8"?>
<!-- Generator: Adobe Illustrator 14.0.0, SVG Export Plug-In . SVG Version: 6.00 Build 43363)  -->
<!DOCTYPE svg PUBLIC "-//W3C//DTD SVG 1.1//EN" "http://www.w3.org/Graphics/SVG/1.1/DTD/svg11.dtd">
<svg version="1.1" id="Layer_1" xmlns="http://www.w3.org/2000/svg" xmlns:xlink="http://www.w3.org/1999/xlink" x="0px" y="0px"
	 width="173.404px" height="88.462px" viewBox="0 0 173.404 88.462" enable-background="new 0 0 173.404 88.462"
	 xml:space="preserve">
<path d="M36.343,35.012c0.027-1.852-0.479-4.209-1.663-5.259c2.684,0,20.463,0.012,20.435,0.012l-1.065,7.909
	c-1.063-1.146-2.333-2.668-3.927-2.668c-1.637,0.006-5.041,0-5.059,0v12.919c0.018,0.025,2.613,0.025,3.994,0
	c1.389,0.025,2.773-0.292,4.126-1.664v8.786c-1.122-0.936-2.507-1.789-3.86-1.789l-4.26-0.009V69.69
	c1.056,0.331,7.7-0.043,10.117-3.595l-1.398,8.854H34.546c1.64-1.378,1.824-3.561,1.797-5.192V35.012z"/>
<path d="M127.201,35.012c-0.033-1.852-0.541-4.209-1.664-5.259c2.623,0,20.404,0.012,20.437,0.012l-1.134,7.909
	c-1.057-1.146-2.325-2.668-3.927-2.668c-1.63,0.006-5.034,0-5.059,0v12.919c0.023,0.025,2.62,0.025,3.993,0
	c1.396,0.025,2.78-0.292,4.192-1.664v8.786c-1.182-0.936-2.565-1.789-3.928-1.789l-4.259-0.009V69.69
	c1.062,0.331,7.707-0.043,10.118-3.595l-1.398,8.854h-19.236c1.646-1.378,1.83-3.561,1.863-5.192L127.201,35.012L127.201,35.012z"/>
<path d="M94.386,2.063C94.4,1.347,94.157,0.433,93.586,0c1.286,0.026,9.761,0.026,9.785,0l-0.532,3.128
	c-0.521-0.481-1.125-1.057-1.863-1.057c-0.802-0.008-2.425,0-2.396,0v4.984c-0.026,0.016,1.211,0.016,1.863,0
	c0.667,0.016,1.327-0.056,1.997-0.6v3.861c-0.561-0.386-1.222-0.821-1.863-0.8h-1.997v6.124c0.468,0.135,3.635-0.013,4.793-1.397
	l-0.665,3.461h-9.188c0.793-0.532,0.881-1.432,0.867-2.063V2.063z"/>
<path d="M106.7,35.012c0.028-1.852-0.479-4.209-1.665-5.259h12.048c-1.146,1.05-1.597,3.407-1.597,5.259v34.546
	c1.037,0.365,7.676-0.017,10.117-3.595l-1.664,8.986h-19.037c1.139-0.692,1.826-3,1.798-5.392V35.012L106.7,35.012z"/>
<path d="M103.503,29.753l1.465,9.053c-0.83-1.587-3.633-3.8-5.125-3.8l-2.528,0.006c-0.606,0-0.853,1.074-0.853,2.13
	c-0.014,1.828,0.369,42.076,0.519,44.597c0.098,2.557,1.45,5.672,2.464,6.723H83.801c1.015-1.051,2.367-4.166,2.465-6.723
	c0.148-2.521,0.519-42.77,0.519-44.597c0.013-1.056-0.246-2.136-0.852-2.136l-2.53,0.006c-1.493,0-4.28,2.092-5.125,3.794
	l1.464-9.053H103.503z"/>
<path d="M71.422,2.929c0-0.402-0.116-0.826-0.399-0.8h-1.397c-0.702-0.026-1.678,0.796-2.063,1.465L67.895,0h11.313l0.334,3.594
	c-0.379-0.623-1.361-1.491-2.063-1.465h-1.465c-0.306-0.026-0.422,0.397-0.398,0.8v12.713c-0.025,0.892,0.236,1.667,0.731,2.063
	H70.69c0.367-0.313,0.726-1.065,0.726-2.063L71.422,2.929z"/>
<path d="M86.598,17.705h5.924c-0.536-0.264-0.865-1.135-0.865-2.063L91.656,2.063c0-0.716,0.23-1.63,0.8-2.063h-5.725
	c0.523,0.434,0.753,1.348,0.73,2.063v4.992h-2.396V2.063C85.036,1.348,85.265,0.434,85.799,0h-5.725
	c0.561,0.434,0.789,1.348,0.789,2.063l0.01,13.578c0,0.929-0.339,1.8-0.866,2.063h5.858c-0.5-0.264-0.829-1.135-0.798-2.063V9.518
	h2.396v6.124C87.484,16.57,87.155,17.441,86.598,17.705z"/>
<path d="M19.569,1.597c7.809-0.03,13.304,3.825,13.304,17.173c0.009,7.779-2.364,13.95-7.18,16.508
	c4.596,2.456,9.015,8.259,8.985,18.039c0.028,16.796-6.958,21.639-15.843,21.639L0,74.949c2.2-2.424,3.057-4.5,3.057-7.521
	L3.062,8.785C3.062,5.805,2.2,3.934,0,1.531L19.569,1.597z M13.046,30.152c0,1.644,1.447,2.105,3.861,2.13
	c5.461-0.024,6.102-5.908,6.124-13.646c-0.023-9.992-2.581-12.195-6.257-12.18c-2.179-0.015-3.727,1.191-3.727,2.529
	c-0.002,1.523,0,19.58,0,21.167H13.046z M18.105,69.091c5.507,0,6.184-5.577,6.184-15.842c0.006-9.184-2.53-13.953-6.783-13.978
	c-1.823,0.024-4.457,0.371-4.457,1.73c-0.002,1.41,0,22.755,0,24.495c-0.002,1.952,2.027,3.603,5.058,3.603L18.105,69.091
	L18.105,69.091z"/>
<path d="M63.434,29.753c1.625,2.107,1.855,3.428,1.396,5.259L57.11,69.757c-0.341,1.516-1.144,3.93-2.529,5.192h10.518
	c-1.598-1.212-2.001-3.115-1.599-5.192l1.198-5.191h8.454l1.198,4.992c0.319,1.288,0.009,4.475-1.397,5.392h11.981
	c-1.067-0.917-2.453-3.115-3.062-5.259l-7.454-34.612c-0.457-1.836-0.22-3.218,1.397-5.325L63.434,29.753L63.434,29.753z
	 M72.153,59.573h-6.322l3.261-14.179L72.153,59.573z"/>
<path d="M171.339,30.661l-3.594,7.722c-1.172-3.053-3.841-4.355-7.697-4.133c-2.552,0.147-5.672,2.366-5.637,6.041
	c0.091,3.25,1.762,4.789,9.871,9.008c7.439,3.896,9.122,8.306,9.122,12.838c0,7.892-5.304,13.694-14.779,13.721
	c-7.271-0.026-11.521-4.006-11.521-8.853c0.006-3.811,2.166-6.725,5.797-7.588c-1.314,1.518-1.508,3.392-1.531,4.26
	c0.023,2.413,1.374,6.521,7.255,6.521c3.372,0,6.059-2.229,6.059-6.388c-0.025-5.514-4.211-7.229-8.056-9.186
	c-2.52-1.27-9.574-5.024-9.574-13.712c-0.01-6.604,6.078-11.743,12.505-11.781C165.511,29.096,163.996,31.789,171.339,30.661z"/>
</svg>
